<?xml version="1.0" encoding="UTF-8" standalone="no"?>
<!DOCTYPE svg PUBLIC "-//W3C//DTD SVG 1.1//EN"
 "http://www.w3.org/Graphics/SVG/1.1/DTD/svg11.dtd">
<!-- Generated by graphviz version 2.40.1 (20161225.0304)
 -->
<!-- Title: state transitions Pages: 1 -->
<svg width="847pt" height="188pt"
 viewBox="0.00 0.00 847.00 188.00" xmlns="http://www.w3.org/2000/svg" xmlns:xlink="http://www.w3.org/1999/xlink">
<g id="graph0" class="graph" transform="scale(1 1) rotate(0) translate(4 184)">
<title>state transitions</title>
<polygon fill="#ffffff" stroke="transparent" points="-4,4 -4,-184 843,-184 843,4 -4,4"/>
<g id="clust1" class="cluster state regular">
<title>cluster_s_state</title>
<path fill="none" stroke="#000000" stroke-width="2" d="M20,-8C20,-8 819,-8 819,-8 825,-8 831,-14 831,-20 831,-20 831,-160 831,-160 831,-166 825,-172 819,-172 819,-172 20,-172 20,-172 14,-172 8,-166 8,-160 8,-160 8,-20 8,-20 8,-14 14,-8 20,-8"/>
<text text-anchor="start" x="400.159" y="-153.2" font-family="Helvetica,sans-Serif" font-size="12.00" fill="#000000">s_state</text>
</g>
<!-- s_state -->
<!-- IDLE -->
<g id="node2" class="node state regular">
<title>IDLE</title>
<polygon fill="#ffffff" fill-opacity="0.003922" stroke="transparent" stroke-width="2" points="488,-134 432,-134 432,-98 488,-98 488,-134"/>
<text text-anchor="start" x="446.6644" y="-112.2" font-family="Helvetica,sans-Serif" font-size="12.00" fill="#000000">IDLE</text>
<path fill="none" stroke="#000000" stroke-width="2" d="M444.3333,-99C444.3333,-99 475.6667,-99 475.6667,-99 481.3333,-99 487,-104.6667 487,-110.3333 487,-110.3333 487,-121.6667 487,-121.6667 487,-127.3333 481.3333,-133 475.6667,-133 475.6667,-133 444.3333,-133 444.3333,-133 438.6667,-133 433,-127.3333 433,-121.6667 433,-121.6667 433,-110.3333 433,-110.3333 433,-104.6667 438.6667,-99 444.3333,-99"/>
</g>
<!-- WRITE -->
<g id="node3" class="node state regular">
<title>WRITE</title>
<polygon fill="#ffffff" fill-opacity="0.003922" stroke="transparent" stroke-width="2" points="327,-52 267,-52 267,-16 327,-16 327,-52"/>
<text text-anchor="start" x="277.671" y="-30.2" font-family="Helvetica,sans-Serif" font-size="12.00" fill="#000000">WRITE</text>
<path fill="none" stroke="#000000" stroke-width="2" d="M279.3333,-17C279.3333,-17 314.6667,-17 314.6667,-17 320.3333,-17 326,-22.6667 326,-28.3333 326,-28.3333 326,-39.6667 326,-39.6667 326,-45.3333 320.3333,-51 314.6667,-51 314.6667,-51 279.3333,-51 279.3333,-51 273.6667,-51 268,-45.3333 268,-39.6667 268,-39.6667 268,-28.3333 268,-28.3333 268,-22.6667 273.6667,-17 279.3333,-17"/>
</g>
<!-- IDLE&#45;&gt;WRITE -->
<g id="edge1" class="edge transition">
<title>IDLE&#45;&gt;WRITE</title>
<path fill="none" stroke="#000000" d="M448.7073,-97.5842C441.8224,-87.7833 432.1997,-76.2838 421,-69 395.7837,-52.6003 362.8444,-43.7723 337.2533,-39.0865"/>
<polygon fill="#000000" stroke="#000000" points="337.577,-35.5916 327.1336,-37.3766 336.4107,-42.4938 337.577,-35.5916"/>
<text text-anchor="start" x="435" y="-72" font-family="Helvetica,sans-Serif" font-size="10.00" fill="#000000">penable &amp;&amp; pwrite &#160;&#160;</text>
</g>
<!-- READ -->
<g id="node4" class="node state regular">
<title>READ</title>
<polygon fill="#ffffff" fill-opacity="0.003922" stroke="transparent" stroke-width="2" points="689,-52 633,-52 633,-16 689,-16 689,-52"/>
<text text-anchor="start" x="644.3344" y="-30.2" font-family="Helvetica,sans-Serif" font-size="12.00" fill="#000000">READ</text>
<path fill="none" stroke="#000000" stroke-width="2" d="M645.3333,-17C645.3333,-17 676.6667,-17 676.6667,-17 682.3333,-17 688,-22.6667 688,-28.3333 688,-28.3333 688,-39.6667 688,-39.6667 688,-45.3333 682.3333,-51 676.6667,-51 676.6667,-51 645.3333,-51 645.3333,-51 639.6667,-51 634,-45.3333 634,-39.6667 634,-39.6667 634,-28.3333 634,-28.3333 634,-22.6667 639.6667,-17 645.3333,-17"/>
</g>
<!-- IDLE&#45;&gt;READ -->
<g id="edge2" class="edge transition">
<title>IDLE&#45;&gt;READ</title>
<path fill="none" stroke="#000000" d="M488.3827,-113.7123C546.7891,-108.7168 676.0625,-96.0651 689,-81 694.3371,-74.7852 692.8996,-67.4231 688.6466,-60.3922"/>
<polygon fill="#000000" stroke="#000000" points="691.4162,-58.2518 682.5979,-52.3793 685.8293,-62.4693 691.4162,-58.2518"/>
<text text-anchor="start" x="692" y="-72" font-family="Helvetica,sans-Serif" font-size="10.00" fill="#000000">penable &amp;&amp; ~pwrite &#160;&#160;</text>
</g>
<!-- WRITE&#45;&gt;IDLE -->
<g id="edge3" class="edge transition">
<title>WRITE&#45;&gt;IDLE</title>
<path fill="none" stroke="#000000" d="M266.9186,-35.0692C195.818,-38.1348 25.4874,-48.9004 54.933,-81 79.4233,-107.6977 325.1524,-114.0843 421.5166,-115.5669"/>
<polygon fill="#000000" stroke="#000000" points="421.6553,-119.0691 431.7047,-115.7137 421.7562,-112.0699 421.6553,-119.0691"/>
<text text-anchor="start" x="54" y="-72" font-family="Helvetica,sans-Serif" font-size="10.00" fill="#000000">(psel==7&#39;b0000001) &amp;&amp; (pready_counter == 0) &#160;&#160;</text>
</g>
<!-- WRITE&#45;&gt;IDLE -->
<g id="edge4" class="edge transition">
<title>WRITE&#45;&gt;IDLE</title>
<path fill="none" stroke="#000000" d="M292.0382,-52.3363C290.6061,-61.8728 290.8617,-73.1454 297.24,-81 312.6413,-99.966 378.6834,-109.1461 421.7639,-113.194"/>
<polygon fill="#000000" stroke="#000000" points="421.6407,-116.6967 431.9107,-114.0932 422.2587,-109.724 421.6407,-116.6967"/>
<text text-anchor="start" x="297" y="-72" font-family="Helvetica,sans-Serif" font-size="10.00" fill="#000000">!psel || !penable || !pwrite &#160;&#160;</text>
</g>
<!-- READ&#45;&gt;IDLE -->
<g id="edge5" class="edge transition">
<title>READ&#45;&gt;IDLE</title>
<path fill="none" stroke="#000000" d="M632.7722,-45.5158C597.5257,-59.895 537.1021,-84.5454 497.8634,-100.5533"/>
<polygon fill="#000000" stroke="#000000" points="496.3091,-97.4072 488.3721,-104.4253 498.9533,-103.8886 496.3091,-97.4072"/>
<text text-anchor="start" x="573" y="-72" font-family="Helvetica,sans-Serif" font-size="10.00" fill="#000000">psel==7&#39;b0000001 &#160;&#160;</text>
</g>
</g>
</svg>
