<?xml version="1.0" encoding="UTF-8" standalone="no"?>
<!DOCTYPE svg PUBLIC "-//W3C//DTD SVG 1.1//EN"
 "http://www.w3.org/Graphics/SVG/1.1/DTD/svg11.dtd">
<!-- Generated by graphviz version 2.40.1 (20161225.0304)
 -->
<!-- Title: state transitions Pages: 1 -->
<svg width="829pt" height="294pt"
 viewBox="0.00 0.00 828.57 294.00" xmlns="http://www.w3.org/2000/svg" xmlns:xlink="http://www.w3.org/1999/xlink">
<g id="graph0" class="graph" transform="scale(1 1) rotate(0) translate(4 290)">
<title>state transitions</title>
<polygon fill="#ffffff" stroke="transparent" points="-4,4 -4,-290 824.565,-290 824.565,4 -4,4"/>
<g id="clust1" class="cluster state regular">
<title>cluster_next_state</title>
<path fill="none" stroke="#000000" stroke-width="2" d="M20,-8C20,-8 754,-8 754,-8 760,-8 766,-14 766,-20 766,-20 766,-266 766,-266 766,-272 760,-278 754,-278 754,-278 20,-278 20,-278 14,-278 8,-272 8,-266 8,-266 8,-20 8,-20 8,-14 14,-8 20,-8"/>
<text text-anchor="start" x="359.8208" y="-259.2" font-family="Helvetica,sans-Serif" font-size="12.00" fill="#000000">next_state</text>
</g>
<!-- next_state -->
<!-- idle -->
<g id="node2" class="node state regular">
<title>idle</title>
<polygon fill="#ffffff" fill-opacity="0.003922" stroke="transparent" stroke-width="2" points="570,-240 514,-240 514,-204 570,-204 570,-240"/>
<text text-anchor="start" x="532.6664" y="-218.2" font-family="Helvetica,sans-Serif" font-size="12.00" fill="#000000">idle</text>
<path fill="none" stroke="#000000" stroke-width="2" d="M526.3333,-205C526.3333,-205 557.6667,-205 557.6667,-205 563.3333,-205 569,-210.6667 569,-216.3333 569,-216.3333 569,-227.6667 569,-227.6667 569,-233.3333 563.3333,-239 557.6667,-239 557.6667,-239 526.3333,-239 526.3333,-239 520.6667,-239 515,-233.3333 515,-227.6667 515,-227.6667 515,-216.3333 515,-216.3333 515,-210.6667 520.6667,-205 526.3333,-205"/>
</g>
<!-- idle&#45;&gt;idle -->
<g id="edge1" class="edge transition">
<title>idle&#45;&gt;idle</title>
<path fill="none" stroke="#000000" d="M570.0183,-226.8247C581.888,-227.1883 592,-225.5801 592,-222 592,-219.5387 587.2205,-218.0094 580.3762,-217.4121"/>
<polygon fill="#000000" stroke="#000000" points="580.0957,-213.9049 570.0183,-217.1753 579.9356,-220.903 580.0957,-213.9049"/>
<text text-anchor="start" x="592" y="-219" font-family="Helvetica,sans-Serif" font-size="10.00" fill="#000000">!transfer &#160;&#160;</text>
</g>
<!-- setup -->
<g id="node3" class="node state regular">
<title>setup</title>
<polygon fill="#ffffff" fill-opacity="0.003922" stroke="transparent" stroke-width="2" points="436,-158 380,-158 380,-122 436,-122 436,-158"/>
<text text-anchor="start" x="393.3264" y="-136.2" font-family="Helvetica,sans-Serif" font-size="12.00" fill="#000000">setup</text>
<path fill="none" stroke="#000000" stroke-width="2" d="M392.3333,-123C392.3333,-123 423.6667,-123 423.6667,-123 429.3333,-123 435,-128.6667 435,-134.3333 435,-134.3333 435,-145.6667 435,-145.6667 435,-151.3333 429.3333,-157 423.6667,-157 423.6667,-157 392.3333,-157 392.3333,-157 386.6667,-157 381,-151.3333 381,-145.6667 381,-145.6667 381,-134.3333 381,-134.3333 381,-128.6667 386.6667,-123 392.3333,-123"/>
</g>
<!-- idle&#45;&gt;setup -->
<g id="edge2" class="edge transition">
<title>idle&#45;&gt;setup</title>
<path fill="none" stroke="#000000" d="M513.9092,-204.8101C493.8088,-192.5099 466.5584,-175.8342 444.7331,-162.4785"/>
<polygon fill="#000000" stroke="#000000" points="446.4104,-159.4016 436.0538,-157.1673 442.7566,-165.3723 446.4104,-159.4016"/>
<text text-anchor="start" x="483" y="-178" font-family="Helvetica,sans-Serif" font-size="10.00" fill="#000000">not (!transfer) &#160;&#160;</text>
</g>
<!-- access -->
<g id="node4" class="node state regular">
<title>access</title>
<polygon fill="#ffffff" fill-opacity="0.003922" stroke="transparent" stroke-width="2" points="437.5,-52 378.5,-52 378.5,-16 437.5,-16 437.5,-52"/>
<text text-anchor="start" x="389.8292" y="-30.2" font-family="Helvetica,sans-Serif" font-size="12.00" fill="#000000">access</text>
<path fill="none" stroke="#000000" stroke-width="2" d="M390.8333,-17C390.8333,-17 425.1667,-17 425.1667,-17 430.8333,-17 436.5,-22.6667 436.5,-28.3333 436.5,-28.3333 436.5,-39.6667 436.5,-39.6667 436.5,-45.3333 430.8333,-51 425.1667,-51 425.1667,-51 390.8333,-51 390.8333,-51 385.1667,-51 379.5,-45.3333 379.5,-39.6667 379.5,-39.6667 379.5,-28.3333 379.5,-28.3333 379.5,-22.6667 385.1667,-17 390.8333,-17"/>
</g>
<!-- setup&#45;&gt;access -->
<g id="edge3" class="edge transition">
<title>setup&#45;&gt;access</title>
<path fill="none" stroke="#000000" d="M379.7536,-139.3267C299.9321,-137.1348 77.0649,-128.9087 55.412,-105 44.6716,-93.1407 44.6716,-80.8593 55.412,-69 76.0951,-46.1621 280.3717,-37.6335 368.1982,-35.005"/>
<polygon fill="#000000" stroke="#000000" points="368.4165,-38.5002 378.3114,-34.7131 368.2145,-31.5031 368.4165,-38.5002"/>
<text text-anchor="start" x="55" y="-84" font-family="Helvetica,sans-Serif" font-size="10.00" fill="#000000">read == 1&#39;b1 &amp;&amp; write == 1&#39;b0 &#160;&#160;</text>
</g>
<!-- setup&#45;&gt;access -->
<g id="edge4" class="edge transition">
<title>setup&#45;&gt;access</title>
<path fill="none" stroke="#000000" d="M379.78,-138.2874C336.6894,-135.0176 257.6585,-126.2205 240.412,-105 230.3208,-92.5836 230.3208,-81.4164 240.412,-69 256.205,-49.568 323.8066,-40.5535 368.1774,-36.6613"/>
<polygon fill="#000000" stroke="#000000" points="368.6839,-40.1315 378.3623,-35.8212 368.1084,-33.1552 368.6839,-40.1315"/>
<text text-anchor="start" x="240" y="-84" font-family="Helvetica,sans-Serif" font-size="10.00" fill="#000000">read == 1&#39;b0 &amp;&amp; write == 1&#39;b1 &#160;&#160;</text>
</g>
<!-- access&#45;&gt;idle -->
<g id="edge8" class="edge transition">
<title>access&#45;&gt;idle</title>
<path fill="none" stroke="#000000" d="M437.5404,-35.2683C509.4942,-38.6594 689.26,-49.0623 707,-69 756.1761,-124.2683 642.3124,-181.4902 579.7088,-207.5332"/>
<polygon fill="#000000" stroke="#000000" points="578.0707,-204.4214 570.1343,-211.4402 580.7155,-210.9026 578.0707,-204.4214"/>
<text text-anchor="start" x="710" y="-137" font-family="Helvetica,sans-Serif" font-size="10.00" fill="#000000">not (transfer &amp; !pslverr) &#160;&#160;</text>
</g>
<!-- access&#45;&gt;setup -->
<g id="edge5" class="edge transition">
<title>access&#45;&gt;setup</title>
<path fill="none" stroke="#000000" d="M408,-52.2522C408,-68.5245 408,-92.6103 408,-111.4328"/>
<polygon fill="#000000" stroke="#000000" points="404.5001,-111.5362 408,-121.5362 411.5001,-111.5362 404.5001,-111.5362"/>
<text text-anchor="start" x="408" y="-96" font-family="Helvetica,sans-Serif" font-size="10.00" fill="#000000">read == 1&#39;b0 &amp;&amp; write == 1&#39;b1 &#160;&#160;</text>
<text text-anchor="start" x="408" y="-84" font-family="Helvetica,sans-Serif" font-size="10.00" fill="#000000">pready &#160;&#160;</text>
<text text-anchor="start" x="408" y="-72" font-family="Helvetica,sans-Serif" font-size="10.00" fill="#000000">transfer &amp; !pslverr &#160;&#160;</text>
</g>
<!-- access&#45;&gt;setup -->
<g id="edge6" class="edge transition">
<title>access&#45;&gt;setup</title>
<path fill="none" stroke="#000000" d="M437.7011,-36.8411C476.115,-41.2002 539.7965,-50.9891 554,-69 563.9076,-81.5634 563.9076,-92.4366 554,-105 540.8327,-121.6969 485.1433,-131.3277 446.4828,-136.1171"/>
<polygon fill="#000000" stroke="#000000" points="445.602,-132.6965 436.0797,-137.3414 446.4202,-139.6486 445.602,-132.6965"/>
<text text-anchor="start" x="561" y="-96" font-family="Helvetica,sans-Serif" font-size="10.00" fill="#000000">read == 1&#39;b1 &amp;&amp; write == 1&#39;b0 &#160;&#160;</text>
<text text-anchor="start" x="561" y="-84" font-family="Helvetica,sans-Serif" font-size="10.00" fill="#000000">pready &#160;&#160;</text>
<text text-anchor="start" x="561" y="-72" font-family="Helvetica,sans-Serif" font-size="10.00" fill="#000000">transfer &amp; !pslverr &#160;&#160;</text>
</g>
<!-- access&#45;&gt;access -->
<g id="edge7" class="edge transition">
<title>access&#45;&gt;access</title>
<path fill="none" stroke="#000000" d="M437.6366,-38.8452C449.5231,-39.119 459.5,-37.5039 459.5,-34 459.5,-31.5911 454.7844,-30.0749 447.9746,-29.4515"/>
<polygon fill="#000000" stroke="#000000" points="447.733,-25.9432 437.6366,-29.1548 447.5321,-32.9403 447.733,-25.9432"/>
<text text-anchor="start" x="459.5" y="-37" font-family="Helvetica,sans-Serif" font-size="10.00" fill="#000000">not (pready) &#160;&#160;</text>
<text text-anchor="start" x="459.5" y="-25" font-family="Helvetica,sans-Serif" font-size="10.00" fill="#000000">transfer &amp; !pslverr &#160;&#160;</text>
</g>
</g>
</svg>
